<?xml version="1.0" encoding="utf-8"?>
<!-- Generator: Adobe Illustrator 25.2.3, SVG Export Plug-In . SVG Version: 6.00 Build 0)  -->
<svg version="1.1" id="Layer_1" xmlns="http://www.w3.org/2000/svg" xmlns:xlink="http://www.w3.org/1999/xlink" x="0px" y="0px"
	 viewBox="0 0 81 51" style="enable-background:new 0 0 81 51;" xml:space="preserve">
<style type="text/css">
	.st0{fill:#EDEDED;fill-opacity:0;}
	.st1{fill:#575757;}
</style>
<rect y="0" class="st0" width="81" height="51"/>
<path class="st1" d="M1.6,30.4H0.3v9.2h1.8v-5.1l2.3,3.6h1.3L8,34.4v5.1h1.8v-9.2H8.6l-3.5,5.5L1.6,30.4z"/>
<path class="st1" d="M16.1,39.7c1.1,0,2.1-0.3,2.9-0.9c0.8-0.7,1.2-1.7,1.2-3.1v-5.3h-1.8v5.5c0,0.8-0.2,1.4-0.6,1.7
	c-0.4,0.4-1,0.6-1.6,0.6S15,38,14.6,37.6c-0.4-0.4-0.6-0.9-0.6-1.7v-5.5h-2v5.3c0,1.4,0.4,2.4,1.2,3.1C13.9,39.4,15,39.7,16.1,39.7z
	"/>
<path class="st1" d="M22.3,39.6h5.9V38h-4v-7.6h-1.8v9.2H22.3z"/>
<path class="st1" d="M27.9,30.4V32h2.5v7.6h1.8V32h2.5v-1.6C34.7,30.4,27.9,30.4,27.9,30.4z"/>
<path class="st1" d="M36.2,39.6H38v-9.2h-1.8V39.6z"/>
<path class="st1" d="M42.7,35.5l3.4,4.1h2.3l-3.6-4.2c0.4-0.1,0.7-0.3,1-0.5c0.5-0.5,0.8-1.1,0.8-1.9c0-0.7-0.3-1.4-0.8-1.9
	c-0.5-0.4-1.1-0.7-2.1-0.7h-3.5v9.2H42v-4.1C42,35.5,42.7,35.5,42.7,35.5z M42,33.9v-2h1.5c0.5,0,0.8,0.1,0.9,0.3
	c0.2,0.2,0.3,0.4,0.3,0.7s-0.1,0.5-0.3,0.7s-0.4,0.3-0.9,0.3H42z"/>
<path class="st1" d="M49.9,35c0-1.7,1.3-3.2,3.1-3.2s3.1,1.4,3.1,3.2s-1.3,3.2-3.1,3.2S49.9,36.7,49.9,35z M48.1,35
	c0,2.6,2,4.7,5,4.7c2.9,0,5-2.1,5-4.7c0-2.6-2-4.7-5-4.7C50.1,30.2,48.1,32.3,48.1,35z"/>
<path class="st1" d="M61.2,35c0-1.7,1.3-3.2,3.1-3.2s3.1,1.4,3.1,3.2s-1.3,3.2-3.1,3.2C62.5,38.1,61.2,36.7,61.2,35z M59.3,35
	c0,2.6,2,4.7,5,4.7c2.9,0,5-2.1,5-4.7c0-2.6-2-4.7-5-4.7C61.4,30.2,59.3,32.3,59.3,35z"/>
<path class="st1" d="M72.1,30.4h-1.3v9.2h1.8v-5.1l2.3,3.6h1.3l2.3-3.6v5.1h1.8v-9.2H79l-3.5,5.5L72.1,30.4z"/>
<path class="st1" d="M4.8,20.9c0-1-0.7-1.5-1.4-1.5H0.3v3c0,1,0.8,1.5,1.5,1.5h3V20.9z"/>
<path class="st1" d="M11.5,24v-3.9c0-4.2-2.8-7.3-7.6-7.3H0.3v5.3h3.1c1.1,0,2.7,0.9,2.7,2.6V24H11.5z"/>
<path class="st1" d="M20.3,20.7c0,0.7-0.2,1.2-0.6,1.5s-0.8,0.4-1.3,0.4c-0.3,0-0.5-0.1-0.8-0.2c-0.2-0.2-0.3-0.4-0.3-0.8
	s0.2-0.7,0.5-0.9c0.2-0.1,0.5-0.2,1-0.3l0.5-0.1c0.2-0.1,0.4-0.1,0.6-0.2c0.2,0,0.3-0.1,0.4-0.2L20.3,20.7L20.3,20.7z M18.2,19
	c-0.8,0.1-1.5,0.3-1.9,0.5c-0.8,0.4-1.2,1.2-1.2,2.2c0,0.8,0.2,1.4,0.7,1.8s1.1,0.6,1.9,0.6c0.6,0,1.1-0.1,1.6-0.4
	c0.4-0.2,0.7-0.5,1-0.8c0,0.2,0,0.3,0,0.5c0,0.1,0.1,0.3,0.1,0.5h2.4v-0.3c-0.1-0.1-0.2-0.1-0.3-0.2c-0.1-0.1-0.1-0.3-0.1-0.6
	c0-0.4,0-0.7,0-1V18c0-1-0.3-1.7-1.1-2c-0.7-0.3-1.5-0.5-2.4-0.5c-1.4,0-2.4,0.3-3,1.1c-0.4,0.5-0.6,1-0.6,1.8h2.1
	c0-0.3,0.1-0.6,0.3-0.7c0.2-0.2,0.6-0.4,1.1-0.4c0.4,0,0.8,0.1,1,0.2s0.3,0.4,0.3,0.7c0,0.3-0.1,0.5-0.5,0.6
	c-0.2,0.1-0.5,0.1-0.9,0.2L18.2,19z"/>
<path class="st1" d="M26.1,15.6v5c0,0.5,0.1,0.8,0.2,1.1c0.2,0.4,0.6,0.6,1.1,0.6c0.7,0,1.2-0.3,1.5-0.9c0.1-0.3,0.2-0.7,0.2-1.3
	v-4.5h2.2V24h-2.1v-1.2c0,0-0.1,0.1-0.1,0.2c-0.1,0.1-0.2,0.2-0.3,0.3c-0.3,0.3-0.7,0.5-1,0.6s-0.7,0.2-1.1,0.2
	c-1.2,0-2-0.4-2.5-1.3c-0.2-0.5-0.3-1.2-0.3-2.1v-5h2.2V15.6z"/>
<path class="st1" d="M36.5,22.4c-0.6,0-1.1-0.2-1.4-0.7c-0.3-0.5-0.4-1.1-0.4-1.8c0-0.7,0.2-1.3,0.4-1.8c0.3-0.5,0.7-0.7,1.4-0.7
	c0.4,0,0.8,0.1,1.1,0.4c0.5,0.4,0.7,1.2,0.7,2.2c0,0.7-0.2,1.3-0.5,1.8C37.6,22.2,37.2,22.4,36.5,22.4z M36.1,15.5
	c-1.1,0-2,0.4-2.6,1.2c-0.6,0.8-1,1.9-1,3.3c0,1.2,0.3,2.2,1,3c0.6,0.8,1.5,1.2,2.4,1.2c0.6,0,1.1-0.1,1.5-0.3
	c0.4-0.2,0.7-0.6,1-1.1V24h2.1V12.9h-2.2v3.8c-0.2-0.4-0.5-0.7-0.9-0.9C37,15.6,36.6,15.5,36.1,15.5z"/>
<path class="st1" d="M44.3,14.7h-2.2v-1.8h2.2V14.7z M42.1,15.6h2.2V24h-2.2V15.6z"/>
<path class="st1" d="M49.7,22.4c-0.6,0-1.1-0.2-1.5-0.7c-0.3-0.4-0.5-1.1-0.5-1.9s0.2-1.5,0.5-1.9s0.8-0.7,1.5-0.7
	c0.6,0,1.1,0.2,1.5,0.7c0.3,0.4,0.5,1.1,0.5,1.9s-0.2,1.5-0.5,1.9C50.8,22.2,50.3,22.4,49.7,22.4z M53.9,19.8c0-1.2-0.3-2.2-1-3.1
	c-0.7-0.9-1.8-1.3-3.2-1.3s-2.5,0.4-3.2,1.3s-1,1.9-1,3.1s0.3,2.3,1,3.1c0.7,0.9,1.8,1.3,3.2,1.3s2.5-0.4,3.2-1.3
	C53.6,22.1,53.9,21,53.9,19.8z"/>
<path class="st1" d="M63.4,19.8c0,0.8-0.1,1.4-0.5,1.9c-0.3,0.5-0.8,0.7-1.4,0.7c-0.4,0-0.8-0.1-1.1-0.3c-0.5-0.4-0.8-1.1-0.8-2
	c0-0.6,0.1-1.1,0.2-1.5c0.3-0.7,0.8-1.1,1.6-1.1c0.6,0,1.1,0.2,1.4,0.7C63.2,18.6,63.4,19.2,63.4,19.8z M62.2,15.5
	c-0.7,0-1.2,0.2-1.7,0.5c-0.3,0.2-0.5,0.5-0.7,0.8v-1.2h-2.1v11.1h2.2v-3.8c0.2,0.3,0.5,0.6,0.7,0.8c0.4,0.3,1,0.5,1.6,0.5
	c1,0,1.9-0.4,2.5-1.1c0.6-0.8,1-1.9,1-3.3s-0.3-2.4-1-3.2C64,15.8,63.1,15.5,62.2,15.5z"/>
<path class="st1" d="M71.3,15.5c0,0,0.1,0,0.2,0v2.2c-0.1,0-0.2,0-0.4,0c-0.1,0-0.2,0-0.2,0c-0.9,0-1.5,0.3-1.8,0.8
	c-0.2,0.3-0.2,0.8-0.2,1.5v4h-2.2v-8.3h2.1v1.5c0.3-0.5,0.6-0.9,0.9-1.1c0.4-0.3,0.9-0.5,1.6-0.5C71.3,15.5,71.3,15.5,71.3,15.5z"/>
<path class="st1" d="M76,22.4c-0.6,0-1.1-0.2-1.5-0.7c-0.3-0.4-0.5-1.1-0.5-1.9s0.2-1.5,0.5-1.9s0.8-0.7,1.5-0.7
	c0.6,0,1.1,0.2,1.5,0.7c0.3,0.4,0.5,1.1,0.5,1.9s-0.2,1.5-0.5,1.9C77.2,22.2,76.7,22.4,76,22.4z M80.3,19.8c0-1.2-0.3-2.2-1-3.1
	c-0.7-0.9-1.8-1.3-3.2-1.3c-1.4,0-2.5,0.4-3.2,1.3s-1.1,1.9-1.1,3.1s0.3,2.3,1,3.1c0.7,0.9,1.8,1.3,3.2,1.3c1.4,0,2.5-0.4,3.2-1.3
	C80,22.1,80.3,21,80.3,19.8z"/>
</svg>
