<?xml version="1.0" encoding="utf-8"?>
<!-- Generator: Adobe Illustrator 25.2.3, SVG Export Plug-In . SVG Version: 6.00 Build 0)  -->
<svg version="1.1" id="Layer_1" xmlns="http://www.w3.org/2000/svg" xmlns:xlink="http://www.w3.org/1999/xlink" x="0px" y="0px"
	 viewBox="0 0 81 51" style="enable-background:new 0 0 81 51;" xml:space="preserve">
<style type="text/css">
	.st0{fill:#EDEDED;fill-opacity:0;}
	.st1{fill:#575757;}
</style>
<rect y="0" class="st0" width="81" height="51"/>
<path class="st1" d="M24.9,37.6c5.9,0,10-2.7,10-13s-4.1-13-10-13s-10,2.7-10,13C14.9,34.9,19,37.6,24.9,37.6z M23.6,24.6L18.8,20
	l1.4-1.4l3.8,3.7v-8.9l7,6.7l-4.6,4.5l4.6,4.5l-7,6.7v-8.9l-3.8,3.7l-1.4-1.4L23.6,24.6z M26,31.2l2.2-2.2L26,26.8V31.2z M26,18
	l2.2,2.2L26,22.3V18z"/>
<path class="st1" d="M42.6,29.3c1,1,2.1,1.4,3.4,1.4c2.3,0,4.1-1.7,4.1-3.9c0-1.2-0.5-2.3-1.4-3C47.9,23.2,47,23,46.1,23
	c-0.3,0-0.6,0-0.9,0.1l0.2-1.8h4.2v-1.9h-5.9L43,25.3l1.3,0.2c0.5-0.4,1.1-0.6,1.6-0.6s1,0.1,1.4,0.4c0.4,0.4,0.7,0.9,0.7,1.5
	s-0.2,1.1-0.6,1.4c-0.4,0.3-0.8,0.5-1.3,0.5c-0.8,0-1.4-0.4-1.9-0.9L42.6,29.3z M52,29.4c0,0.8,0.6,1.4,1.4,1.4s1.4-0.6,1.4-1.4
	S54.2,28,53.4,28S52,28.6,52,29.4z M62,25c0,2.1-0.5,3.8-1.8,3.8s-1.8-1.7-1.8-3.8s0.5-3.8,1.8-3.8S62,22.9,62,25z M56.3,25
	c0,3.2,1.1,5.8,3.9,5.8c2.9,0,3.9-2.6,3.9-5.8s-1.1-5.8-3.9-5.8C57.3,19.2,56.3,21.8,56.3,25z"/>
</svg>
