<?xml version="1.0" encoding="utf-8"?>
<!-- Generator: Adobe Illustrator 25.2.3, SVG Export Plug-In . SVG Version: 6.00 Build 0)  -->
<svg version="1.1" id="Layer_1" xmlns="http://www.w3.org/2000/svg" xmlns:xlink="http://www.w3.org/1999/xlink" x="0px" y="0px"
	 viewBox="0 0 81 51" style="enable-background:new 0 0 81 51;" xml:space="preserve">
<style type="text/css">
	.st0{fill:#EDEDED;fill-opacity:0;}
	.st1{fill:#00A44C;}
	.st2{fill:#E93D26;}
	.st3{fill:#F8AA00;}
	.st4{fill:#007ABE;}
	.st5{fill:#575757;}
</style>
<rect y="0" class="st0" width="81" height="51"/>
<path class="st1" d="M49.6,37.9c-0.7,0-1.4-0.6-1.4-1.3s0.6-1.3,1.4-1.3c0.7,0,1.4,0.6,1.4,1.3C51,37.3,50.4,37.9,49.6,37.9z"/>
<path class="st2" d="M45.5,42.4c1.5,0,2.7-1.2,2.7-2.7S47,37,45.5,37s-2.7,1.2-2.7,2.7S44,42.4,45.5,42.4z"/>
<path class="st3" d="M45.5,49.6c1.8,0,3.2-1.4,3.2-3.1c0-1.7-1.4-3.2-3.2-3.2s-3.2,1.4-3.2,3.1C42.3,48.2,43.8,49.6,45.5,49.6z"/>
<path class="st4" d="M36.4,42.4c3,0,5.5-2.4,5.5-5.4s-2.4-5.4-5.5-5.4S31,34,31,37S33.4,42.4,36.4,42.4z"/>
<path class="st5" d="M28.3,2.8h2.4V7H35V2.8h2.4v11H35V9.3h-4.2v4.5h-2.4L28.3,2.8z M46.4,12c-0.4,0.6-0.9,1.1-1.5,1.5
	c-0.7,0.4-1.4,0.6-2.2,0.6c-0.6,0-1.1-0.1-1.6-0.3s-0.9-0.5-1.3-0.8c-0.4-0.4-0.7-0.8-0.9-1.3s-0.3-1.1-0.3-1.6
	C38.6,9,39,8,39.8,7.2c0.4-0.4,0.8-0.7,1.3-0.9c0.5-0.2,1-0.3,1.6-0.3c0.6,0,1.1,0.1,1.7,0.3c0.5,0.2,0.9,0.5,1.2,0.8
	c0.3,0.4,0.6,0.8,0.7,1.2c0.2,0.5,0.2,1,0.2,1.5c0,0.1,0,0.2,0,0.2c0,0.1,0,0.2,0,0.2c0,0.1,0,0.1,0,0.2H41c0.1,0.4,0.3,0.8,0.7,1.1
	c0.4,0.2,0.8,0.3,1.2,0.3s0.7-0.1,1.1-0.3c0.3-0.2,0.5-0.4,0.7-0.7L46.4,12z M44.4,9c0-0.1-0.1-0.3-0.2-0.4
	c-0.1-0.2-0.2-0.3-0.3-0.4C43.7,8.1,43.5,8,43.4,8c-0.2-0.1-0.4-0.1-0.7-0.1c-0.8,0-1.4,0.5-1.7,1.2L44.4,9L44.4,9z M49.5,13.5
	l-3.2-7.2H49l1.8,4.1H51l1.7-4.1h2.6l-4.8,10.8H48L49.5,13.5z M21.8,22h5.5c0,0.2,0.1,0.3,0.1,0.5s0,0.4,0,0.5
	c0,0.7-0.1,1.4-0.4,2.1c-0.2,0.6-0.5,1.1-1,1.6s-1.1,0.9-1.8,1.2c-0.8,0.3-1.6,0.5-2.4,0.4c-0.8,0-1.6-0.2-2.3-0.4
	c-0.7-0.3-1.3-0.7-1.9-1.2c-0.5-0.5-1-1.1-1.3-1.8c-0.6-1.5-0.6-3.1,0-4.6c0.3-0.7,0.7-1.3,1.3-1.8c0.5-0.5,1.2-0.9,1.9-1.2
	c0.7-0.3,1.5-0.4,2.3-0.4c0.9,0,1.7,0.2,2.5,0.5c0.7,0.3,1.3,0.8,1.8,1.3l-1.6,1.6c-0.3-0.3-0.7-0.6-1.2-0.8c-0.5-0.2-1-0.3-1.5-0.3
	s-0.9,0.1-1.3,0.3c-0.4,0.2-0.8,0.4-1.1,0.7c-0.3,0.3-0.6,0.7-0.7,1.1c-0.4,0.9-0.4,1.9,0,2.8c0.2,0.4,0.4,0.8,0.7,1.1
	c0.3,0.3,0.7,0.5,1.1,0.7s0.9,0.3,1.4,0.3c0.9,0,1.7-0.3,2.3-0.8c0.2-0.2,0.4-0.4,0.5-0.6c0.2-0.2,0.3-0.5,0.4-0.8h-3.2L21.8,22
	L21.8,22z M32.2,20.3c0.6,0,1.1,0.1,1.6,0.3c0.5,0.2,0.9,0.5,1.3,0.8c0.4,0.4,0.7,0.8,0.9,1.3c0.4,1,0.4,2.2,0,3.2
	c-0.2,0.5-0.5,0.9-0.9,1.3c-0.4,0.3-0.8,0.6-1.3,0.8c-1.1,0.4-2.2,0.4-3.3,0c-0.5-0.2-0.9-0.5-1.3-0.8c-0.4-0.4-0.7-0.8-0.9-1.3
	c-0.4-1-0.4-2.2,0-3.2c0.2-0.5,0.5-0.9,0.9-1.3c0.4-0.3,0.8-0.6,1.3-0.8C31.1,20.4,31.6,20.3,32.2,20.3z M32.2,26.2
	c0.2,0,0.5,0,0.7-0.1s0.4-0.2,0.6-0.4c0.2-0.2,0.3-0.4,0.4-0.6c0.1-0.2,0.2-0.5,0.1-0.8c0-0.3,0-0.5-0.1-0.8
	c-0.1-0.2-0.2-0.4-0.4-0.6c-0.3-0.3-0.8-0.5-1.2-0.5c-0.2,0-0.5,0-0.7,0.1c-0.4,0.2-0.8,0.5-0.9,1c-0.1,0.2-0.2,0.5-0.1,0.8
	c0,0.3,0,0.5,0.1,0.8c0.1,0.2,0.2,0.4,0.4,0.6c0.2,0.2,0.4,0.3,0.6,0.4C31.7,26.1,31.9,26.2,32.2,26.2z M40.8,20.3
	c0.6,0,1.1,0.1,1.6,0.3c0.5,0.2,0.9,0.5,1.3,0.8c0.4,0.4,0.7,0.8,0.9,1.3c0.4,1,0.4,2.2,0,3.2c-0.2,0.5-0.5,0.9-0.9,1.3
	c-0.4,0.3-0.8,0.6-1.3,0.8c-1.1,0.4-2.2,0.4-3.3,0c-0.5-0.2-0.9-0.5-1.3-0.8c-0.4-0.3-0.7-0.8-0.9-1.3c-0.4-1-0.4-2.2,0-3.2
	c0.2-0.5,0.5-0.9,0.9-1.3c0.4-0.3,0.8-0.6,1.3-0.8C39.7,20.4,40.3,20.3,40.8,20.3z M40.8,26.2c0.2,0,0.5,0,0.7-0.1s0.4-0.2,0.6-0.4
	c0.2-0.2,0.3-0.4,0.4-0.6c0.1-0.2,0.2-0.5,0.1-0.8c0-0.3,0-0.5-0.1-0.8c-0.2-0.4-0.5-0.8-0.9-1c-0.2-0.1-0.4-0.1-0.7-0.1
	c-0.7,0-1.4,0.4-1.6,1.1c-0.1,0.2-0.2,0.5-0.1,0.8c0,0.3,0,0.5,0.1,0.8c0.1,0.2,0.2,0.4,0.4,0.6s0.4,0.3,0.6,0.4
	C40.4,26.1,40.6,26.2,40.8,26.2z M49.4,31.6c-0.5,0-1-0.1-1.5-0.2c-0.4-0.1-0.8-0.3-1.1-0.5s-0.6-0.5-0.8-0.7s-0.4-0.5-0.5-0.8
	l2.2-0.9c0.1,0.4,0.4,0.7,0.7,0.9c0.3,0.2,0.6,0.3,1,0.3c0.5,0,1-0.2,1.4-0.5s0.5-0.9,0.5-1.5v-0.4h-0.2c-0.5,0.6-1.2,1-2.2,1
	c-0.4,0-0.9-0.1-1.3-0.3c-0.4-0.2-0.8-0.4-1.1-0.8c-0.4-0.3-0.6-0.8-0.8-1.2c-0.4-1-0.4-2.2,0-3.3c0.2-0.5,0.5-0.9,0.8-1.2
	c0.3-0.3,0.7-0.6,1.1-0.8c0.4-0.2,0.9-0.3,1.3-0.3c1,0,1.7,0.3,2.2,1h0.2v-0.7h2.2v6.9c0,0.6-0.1,1.1-0.3,1.7
	c-0.2,0.5-0.5,1-0.8,1.3c-0.4,0.4-0.8,0.7-1.3,0.9C50.6,31.5,50,31.6,49.4,31.6z M49.5,26c0.2,0,0.4,0,0.6-0.1
	c0.2-0.1,0.4-0.2,0.6-0.3c0.2-0.2,0.3-0.3,0.4-0.6c0.2-0.5,0.2-1.1,0-1.6c-0.1-0.2-0.2-0.4-0.4-0.6s-0.4-0.3-0.6-0.3
	c-0.4-0.2-0.9-0.2-1.3,0c-0.2,0.1-0.4,0.2-0.6,0.3c-0.2,0.2-0.3,0.3-0.4,0.6c-0.2,0.5-0.2,1.1,0,1.6c0.1,0.2,0.2,0.4,0.4,0.6
	s0.4,0.3,0.6,0.3C49.1,25.9,49.3,26,49.5,26z M54.9,28.1v-11h2.3v11H54.9z M65.9,26.2c-0.4,0.6-0.9,1.1-1.5,1.5
	c-0.7,0.4-1.4,0.6-2.2,0.5c-0.6,0-1.1-0.1-1.6-0.3c-0.5-0.2-0.9-0.5-1.3-0.8c-0.4-0.3-0.7-0.8-0.9-1.3s-0.3-1.1-0.3-1.6
	c0-1.1,0.4-2.1,1.2-2.8c0.4-0.4,0.8-0.7,1.3-0.9c0.5-0.2,1.1-0.3,1.6-0.3c0.6,0,1.1,0.1,1.7,0.3c0.5,0.2,0.9,0.5,1.2,0.8
	c0.3,0.4,0.6,0.8,0.7,1.2c0.2,0.5,0.3,1,0.2,1.5c0,0.1,0,0.2,0,0.2c0,0.1,0,0.2,0,0.2c0,0.1,0,0.1,0,0.2h-5.6
	c0.1,0.4,0.3,0.8,0.7,1.1c0.4,0.2,0.8,0.3,1.2,0.3s0.7-0.1,1.1-0.3c0.3-0.2,0.5-0.4,0.7-0.7L65.9,26.2z M63.8,23.3
	c0-0.1-0.1-0.3-0.2-0.4c-0.1-0.2-0.2-0.3-0.3-0.4c-0.2-0.1-0.3-0.2-0.5-0.3c-0.2-0.1-0.4-0.1-0.7-0.1c-0.8,0-1.4,0.5-1.7,1.2
	L63.8,23.3z"/>
</svg>
