<?xml version="1.0" encoding="utf-8"?>
<!-- Generator: Adobe Illustrator 25.2.3, SVG Export Plug-In . SVG Version: 6.00 Build 0)  -->
<svg version="1.1" id="Layer_1" xmlns="http://www.w3.org/2000/svg" xmlns:xlink="http://www.w3.org/1999/xlink" x="0px" y="0px"
	 viewBox="0 0 81 51" style="enable-background:new 0 0 81 51;" xml:space="preserve">
<style type="text/css">
	.st0{fill:#EDEDED;fill-opacity:0;}
	.st1{fill:#575757;}
</style>
<rect y="0" class="st0" width="81" height="51"/>
<path class="st1" d="M51.9,36.9H30.3c-0.1,0-0.3,0-0.4-0.1s-0.2-0.2-0.3-0.3c-0.1-0.1-0.1-0.3-0.1-0.4c0-0.1,0.1-0.3,0.2-0.4
	l10.7-12.3c0.1-0.1,0.2-0.2,0.3-0.2s0.2-0.1,0.3-0.1s0.2,0,0.3,0.1c0.1,0,0.2,0.1,0.3,0.2l10.7,12.3c0.1,0.1,0.2,0.2,0.2,0.4
	c0,0.1,0,0.3-0.1,0.4c-0.1,0.1-0.1,0.2-0.3,0.3C52.2,36.8,52,36.9,51.9,36.9z M49,28.9l-0.9-1L48,27.7l0,0c0,0,0,0,0-0.1
	c0,0,0,0,0-0.1l0,0l0.1-0.1c1.8-1.4,3-3.4,3.6-5.6s0.5-4.5-0.3-6.6s-2.2-4-4-5.3c-1.9-1.3-4.1-2-6.3-2c-2.3,0-4.5,0.7-6.3,2
	c-1.9,1.3-3.3,3.2-4,5.3c-0.8,2.1-0.9,4.5-0.3,6.6c0.6,2.2,1.9,4.1,3.6,5.6l0.1,0.1v0.1v0.1l-0.1,0.2l-0.9,1L33.1,29
	C33,29,33,29,33,28.9h-0.1c-2.1-1.7-3.5-4-4.2-6.6S28.1,17,29,14.5s2.6-4.7,4.8-6.2s4.8-2.4,7.5-2.4s5.3,0.8,7.5,2.4
	c2.2,1.5,3.9,3.7,4.8,6.2c0.9,2.5,1,5.3,0.3,7.8c-0.7,2.6-2.2,4.9-4.2,6.6L49.6,29l0,0c0,0,0,0-0.1,0s0,0-0.1,0S49.1,29,49,28.9
	L49,28.9z M45.6,24.8l-0.9-1v-0.1v-0.1c1-0.8,1.7-1.8,2.1-3c0.4-1.2,0.3-2.5-0.1-3.7c-0.4-1.2-1.2-2.2-2.2-3s-2.2-1.1-3.5-1.1
	s-2.5,0.4-3.5,1.1s-1.8,1.8-2.2,3c-0.4,1.2-0.4,2.5-0.1,3.7c0.4,1.2,1.1,2.3,2.1,3c0,0,0,0,0,0.1c0,0,0,0,0,0.1c0,0,0,0,0,0.1
	s0,0,0,0.1l-0.9,1h0c0,0,0,0-0.1,0c0,0,0,0-0.1,0h-0.1c0,0,0,0-0.1,0l-0.3-0.2c-1.2-1.1-2.1-2.5-2.5-4.1s-0.3-3.2,0.3-4.8
	c0.6-1.5,1.6-2.8,2.9-3.8c1.3-0.9,2.9-1.4,4.6-1.4s3.2,0.5,4.6,1.4c1.3,0.9,2.4,2.2,2.9,3.8c0.6,1.5,0.7,3.2,0.3,4.8s-1.3,3-2.5,4.1
	L46,25.1c0,0,0,0-0.1,0c0,0,0,0-0.1,0h-0.1c0,0,0,0-0.1,0L45.6,24.8z M52.6,32.7L52.6,32.7h-0.2l-1-1.2l-0.1-0.1v-0.1v-0.1h0.1
	c2.5-2.1,4.4-4.9,5.2-8.1c0.9-3.2,0.7-6.5-0.4-9.6c-1.1-3.1-3.1-5.8-5.8-7.7s-5.9-2.9-9.2-2.9s-6.5,1-9.2,2.9s-4.8,4.6-5.9,7.6
	c-1.1,3.1-1.3,6.5-0.4,9.6c0.8,3.2,2.7,6,5.2,8.1l0.1,0.1l0.1,0.1c0,0,0,0.1-0.1,0.1l-0.1,0.1L30,32.7v0.1l-0.1,0.1
	c-0.1,0-0.1,0-0.1-0.1l-0.1-0.1c-2.8-2.4-4.9-5.6-5.8-9.2c-1-3.6-0.8-7.4,0.5-10.9S28,6.1,31,4s6.7-3.3,10.4-3.2S48.5,2,51.6,4.1
	c3,2.1,5.3,5.2,6.6,8.7c1.2,3.5,1.4,7.3,0.4,10.9S55.5,30.4,52.6,32.7L52.6,32.7z"/>
<path class="st1" d="M24.6,47.7l0.6-1.4h2.5l0.6,1.4h1.3l-2.7-6.3H26l-2.7,6.3H24.6z M26.4,43.4l0.8,1.9h-1.6L26.4,43.4z M31,43.3
	h-1.2v4.4H31V43.3z M29.6,41.8c0,0.4,0.3,0.7,0.8,0.7c0.4,0,0.8-0.3,0.8-0.7S30.8,41,30.4,41S29.6,41.4,29.6,41.8z M34.7,43.3
	c-0.1,0-0.2,0-0.4,0c-0.5,0-1,0.2-1.3,0.5v-0.4h-1.1v4.4H33V45c0.1-0.3,0.5-0.6,1.1-0.6c0.2,0,0.3,0,0.4,0L34.7,43.3z M37.5,45.1
	c0.8,0,1.3-0.2,1.6-0.6c0.3-0.3,0.5-0.8,0.5-1.3s-0.2-1-0.5-1.3c-0.4-0.4-0.8-0.6-1.6-0.6h-2.4v6.3h1.2V45L37.5,45.1L37.5,45.1z
	 M36.4,44.1v-1.6h1.1c0.4,0,0.6,0.1,0.8,0.3c0.1,0.1,0.2,0.3,0.2,0.5s-0.1,0.4-0.2,0.5c-0.1,0.2-0.4,0.3-0.8,0.3H36.4z M41.2,41.3
	H40v6.4h1.2V41.3z M45.2,46.2c-0.2,0.3-0.6,0.5-1.1,0.5c-0.7,0-1.2-0.5-1.2-1.2c0-0.6,0.4-1.2,1.1-1.2c0.4,0,0.8,0.2,1.1,0.5v1.4
	H45.2z M46.3,43.3h-1.1v0.4c-0.3-0.3-0.8-0.4-1.3-0.4c-1.2,0-2.1,1-2.1,2.3c0,0.6,0.2,1.1,0.6,1.5c0.4,0.4,1,0.7,1.6,0.7
	c0.4,0,0.9-0.1,1.2-0.4v0.4h1.1V43.3z M48.6,49.9l3-6.5h-1.2L49.2,46l-1.3-2.6h-1.3l2,3.9l-1.2,2.6H48.6z M54.9,42.1
	c0.2-0.5,0.5-0.9,1-0.9c0.6,0,1,0.5,1,1c0,0.4-0.2,0.8-0.8,1.5l-2.7,3.1v0.9h5v-1.3h-2.7l1.6-1.9c0.5-0.6,1-1.3,1-2.2
	c0-1.4-1.1-2.4-2.5-2.4c-1.1,0-2.1,0.7-2.4,1.8L54.9,42.1z"/>
</svg>
