<?xml version="1.0" encoding="utf-8"?>
<!-- Generator: Adobe Illustrator 25.2.3, SVG Export Plug-In . SVG Version: 6.00 Build 0)  -->
<svg version="1.1" id="Layer_1" xmlns="http://www.w3.org/2000/svg" xmlns:xlink="http://www.w3.org/1999/xlink" x="0px" y="0px"
	 viewBox="0 0 81 50" style="enable-background:new 0 0 81 50;" xml:space="preserve">
<style type="text/css">
	.st0{fill:#EDEDED;fill-opacity:0;}
	.st1{fill:#575757;}
</style>
<rect y="0" class="st0" width="81" height="50"/>
<path class="st1" d="M64.3,40.5H10.7c-1.9,0-3.4-1.5-3.4-3.3V11.8c0-1.8,1.5-3.3,3.4-3.3h53.6c1.9,0,3.4,1.5,3.4,3.3v25.4
	C67.7,39,66.2,40.5,64.3,40.5z M75.5,16.1c-0.1-0.3-0.4-0.5-0.8-0.5h-5.4v-3.7c0-2.6-2.3-4.8-5-4.8H10.7c-2.8,0-5,2.2-5,4.8v25.4
	c0,2.6,2.3,4.8,5,4.8h53.6c2.8,0,5-2.2,5-4.8v-3.7h5.5c0.5,0,0.8-0.4,0.8-0.8V16.5C75.7,16.3,75.6,16.2,75.5,16.1z"/>
<path class="st1" d="M57.4,27.9h-1v4.7h1c0.9,0,1.5-0.3,1.9-0.8c0.4-0.4,0.6-1,0.6-1.5c0-0.6-0.2-1.2-0.6-1.5
	C58.9,28.2,58.3,27.9,57.4,27.9z M20.2,30.2c0,1.4,1,2.4,2.5,2.4c1.4,0,2.5-1.1,2.5-2.4c0-1.4-1-2.4-2.5-2.4
	C21.2,27.8,20.2,28.9,20.2,30.2z M16.7,28.1c-0.2-0.2-0.4-0.3-1-0.3h-1.2v1.8h1.3c0.5,0,0.8-0.1,1-0.3C17,29.2,17,29,17,28.8
	C17,28.6,16.9,28.3,16.7,28.1z M16.7,18.5c0.1-0.2,0.2-0.4,0.2-0.5c0-0.2-0.1-0.4-0.2-0.5c-0.2-0.2-0.4-0.3-0.9-0.3h-1.1v1.6h1
	C16.3,18.8,16.5,18.7,16.7,18.5z M17.2,21.9c0.2-0.2,0.3-0.5,0.3-0.7c0-0.3-0.1-0.5-0.3-0.7c-0.2-0.2-0.5-0.4-1-0.4h-1.5v2.1h1.5
	C16.8,22.1,17,22.1,17.2,21.9z M22.6,20.5h2l-1-2.3L22.6,20.5z M46,29.2c0.1-0.1,0.2-0.4,0.2-0.5c0-0.2-0.1-0.5-0.2-0.5
	c-0.1-0.1-0.3-0.2-0.8-0.2H44v1.5h1.2C45.8,29.4,45.9,29.3,46,29.2z M51.9,18.5c0.1-0.2,0.2-0.4,0.2-0.5c0-0.3-0.1-0.5-0.2-0.6
	c-0.1-0.2-0.3-0.3-0.8-0.3h-1.3v1.7h1.3C51.6,18.8,51.7,18.7,51.9,18.5z M61.6,15.8l-2.8,4.3v3.4h-1.5v-3.4l-2.8-4.2h1.8l1.8,2.7
	l1.7-2.7L61.6,15.8L61.6,15.8z M53.6,18c0,0.6-0.3,1.2-0.7,1.5c-0.2,0.2-0.5,0.4-0.8,0.5l3,3.5h-1.9l-2.9-3.4h-0.6v3.4h-1.5v-7.7
	h2.9c0.9,0,1.3,0.2,1.7,0.5C53.4,16.8,53.6,17.3,53.6,18z M46.3,30.5l2.8,3.3h-1.8l-2.7-3.2h-0.5v3.2h-1.4v-7.1h2.8
	c0.8,0,1.2,0.2,1.6,0.5c0.4,0.4,0.7,0.9,0.7,1.5c0,0.5-0.3,1.1-0.7,1.5C46.9,30.3,46.6,30.4,46.3,30.5z M46.7,23.5h-4.9v-7.7h4.8
	v1.3h-3.2v1.6h2.5V20h-2.5v2.2h3.4L46.7,23.5L46.7,23.5z M40.3,17.2h-2.1v6.3h-1.5v-6.3h-2.1v-1.4h5.8L40.3,17.2L40.3,17.2z
	 M33.8,31.1l1.5-4.4h1.4l-2.5,7.1h-1l-1.6-4.5L30,33.7h-1l-2.5-7.1h1.4l1.5,4.4l1.6-4.4h1L33.8,31.1z M33.2,17.2h-2.1v6.3h-1.5v-6.3
	h-2.1v-1.4h5.7V17.2z M24.1,15.8l3.4,7.6h-1.6l-0.8-1.7h-3.2l-0.8,1.7h-1.6l3.4-7.6C22.9,15.8,24.1,15.8,24.1,15.8z M17.9,19.2
	c0.7,0.4,1.2,1.1,1.2,2c0,0.6-0.3,1.3-0.8,1.6c-0.5,0.5-1,0.7-2.1,0.7h-3.1v-7.7h2.8c1,0,1.4,0.2,1.8,0.5c0.5,0.4,0.8,0.9,0.8,1.5
	C18.4,18.4,18.2,19,17.9,19.2z M13.1,26.7h2.8c1,0,1.5,0.2,1.9,0.6s0.6,0.9,0.6,1.5c0,0.5-0.2,1.1-0.6,1.5s-1,0.6-1.9,0.6h-1.3v2.9
	h-1.4v-7.1H13.1z M18.8,30.2c0-2,1.6-3.6,3.9-3.6s3.9,1.6,3.9,3.6s-1.6,3.6-3.9,3.6S18.8,32.2,18.8,30.2z M37.3,26.7h4.5v1.2h-3v1.5
	H41v1.3h-2.3v2h3.1v1.2h-4.6L37.3,26.7L37.3,26.7z M49.5,26.7H54v1.2h-3v1.5h2.3v1.3H51v2h3v1.2h-4.6L49.5,26.7L49.5,26.7z
	 M54.9,26.7h2.4c1.1,0,2,0.3,2.6,0.6c1,0.6,1.5,1.7,1.5,2.9c0,1.2-0.6,2.3-1.5,2.9c-0.6,0.5-1.4,0.6-2.6,0.6h-2.4V26.7z M66.4,37.1
	V30V18.4v-6.5c0-1.1-1-2-2.1-2H48h-2.6H33.2h-2.9H10.9c-1.1,0-2.1,0.9-2.1,2v25.2c0,1.1,1,2,2.1,2h19.4h2.9h12.3H48h16.3
	C65.4,39.1,66.4,38.2,66.4,37.1z"/>
</svg>
