<?xml version="1.0" encoding="utf-8"?>
<!-- Generator: Adobe Illustrator 25.2.3, SVG Export Plug-In . SVG Version: 6.00 Build 0)  -->
<svg version="1.1" id="Layer_1" xmlns="http://www.w3.org/2000/svg" xmlns:xlink="http://www.w3.org/1999/xlink" x="0px" y="0px"
	 viewBox="0 0 80 51" style="enable-background:new 0 0 80 51;" xml:space="preserve">
<style type="text/css">
	.st0{fill:#EDEDED;fill-opacity:0;}
	.st1{fill:#575757;}
</style>
<rect y="0" class="st0" width="80" height="51"/>
<g>
	<path class="st1" d="M33.5,22.1h-1.8v2.6h1.8c0.7,0,1.1-0.1,1.3-0.4s0.3-0.6,0.3-0.9c0-0.3-0.1-0.7-0.3-0.9
		C34.5,22.3,34.2,22.1,33.5,22.1z"/>
	<polygon class="st1" points="51.5,26.6 51.5,24.1 49.5,26.6 	"/>
	<path class="st1" d="M79,13.3H1c-0.6,0-1,0.5-1,1v23c0,0.6,0.4,1,1,1h78c0.6,0,1-0.4,1-1v-23C80,13.7,79.6,13.3,79,13.3z
		 M27.7,30.8h-2V20.3h2V30.8z M33.6,26.5h-1.9v4.3h-2V20.3h3.9c1.3,0,2.1,0.3,2.7,0.9c0.5,0.6,0.8,1.4,0.8,2.2
		c0,0.8-0.3,1.7-0.8,2.2C35.8,26.2,34.9,26.5,33.6,26.5z M44.2,30.8l-2.6-4l-2.5,4h-2.3l3.6-5.6l-3.2-4.9h2.3l2.1,3.3l2.1-3.3H46
		l-3.1,4.9l3.6,5.6H44.2z M55.1,28.4h-1.7v2.4h-2v-2.4h-4.9v-1.2l5.5-6.9h1.4v6.3h1.7V28.4z"/>
</g>
</svg>
