<?xml version="1.0" encoding="utf-8"?>
<!-- Generator: Adobe Illustrator 25.2.3, SVG Export Plug-In . SVG Version: 6.00 Build 0)  -->
<svg version="1.1" id="Layer_1" xmlns="http://www.w3.org/2000/svg" xmlns:xlink="http://www.w3.org/1999/xlink" x="0px" y="0px"
	 viewBox="0 0 81 50" style="enable-background:new 0 0 81 50;" xml:space="preserve">
<style type="text/css">
	.st0{fill:#EDEDED;fill-opacity:0;}
	.st1{fill:#575757;}
</style>
<rect y="0" class="st0" width="81" height="50"/>
<path class="st1" d="M24.9,37.5c5.9,0,10-2.7,10-13s-4.1-13-10-13s-10,2.7-10,13S19,37.5,24.9,37.5z M23.6,24.5l-4.9-4.6l1.4-1.4
	l3.8,3.7v-8.9l7,6.7l-4.6,4.5l4.6,4.5l-7,6.7v-8.9l-3.8,3.7l-1.4-1.4L23.6,24.5z M26,31.1l2.2-2.2L26,26.7V31.1z M26,17.9l2.2,2.2
	L26,22.2V17.9z"/>
<path class="st1" d="M48.1,19.3l-5.8,7.4V28h5.2v2.6h2.2V28h1.8v-2h-1.8v-6.7H48.1z M45.4,26l2.1-2.6V26H45.4z M52.5,29.3
	c0,0.8,0.6,1.4,1.4,1.4s1.4-0.6,1.4-1.4s-0.6-1.4-1.4-1.4S52.5,28.5,52.5,29.3z M62.5,24.9c0,2.1-0.5,3.8-1.8,3.8s-1.8-1.7-1.8-3.8
	s0.5-3.8,1.8-3.8S62.5,22.8,62.5,24.9z M56.8,24.9c0,3.2,1.1,5.8,3.9,5.8c2.9,0,3.9-2.6,3.9-5.8s-1.1-5.8-3.9-5.8
	C57.8,19.1,56.8,21.7,56.8,24.9z"/>
</svg>
