<?xml version="1.0" encoding="utf-8"?>
<!-- Generator: Adobe Illustrator 25.2.3, SVG Export Plug-In . SVG Version: 6.00 Build 0)  -->
<svg version="1.1" id="Layer_1" xmlns="http://www.w3.org/2000/svg" xmlns:xlink="http://www.w3.org/1999/xlink" x="0px" y="0px"
	 viewBox="0 0 81 51" style="enable-background:new 0 0 81 51;" xml:space="preserve">
<style type="text/css">
	.st0{fill:#EDEDED;fill-opacity:0;}
	.st1{fill:#575757;}
</style>
<rect y="0" class="st0" width="81" height="51"/>
<path class="st1" d="M19,18H2.2c-1,0-1.9,0.8-1.9,1.8v2.8h1.9v-2.8H19v13h-6.5v1.8H19c1,0,1.9-0.8,1.9-1.8v-13
	C20.9,18.8,20.1,18,19,18z M0.3,31.9v2.8h2.8C3.1,33.2,1.9,31.9,0.3,31.9z M0.3,28.2V30C2.9,30,5,32.1,5,34.6h1.9
	C6.9,31.1,4,28.2,0.3,28.2z M0.3,24.5v1.8c4.7,0,8.4,3.8,8.4,8.4h1.9C10.6,29,6,24.5,0.3,24.5z"/>
<path class="st1" d="M29.2,34.6c-0.4,0-0.7-0.1-1-0.2c-0.3-0.1-0.5-0.4-0.7-0.6l0,0v0.7h-0.9v-7.1h0.9v2.2v0.7l0,0
	c0.2-0.3,0.4-0.4,0.7-0.6c0.3-0.1,0.6-0.2,1-0.2c0.6,0,1.2,0.3,1.6,0.8c0.5,0.5,0.7,1.1,0.7,1.8c0,0.7-0.2,1.3-0.7,1.8
	C30.4,34.4,29.8,34.6,29.2,34.6z M29,33.8c0.5,0,0.8-0.2,1.1-0.5c0.3-0.3,0.5-0.8,0.5-1.3s-0.1-0.9-0.5-1.3
	c-0.3-0.3-0.7-0.5-1.1-0.5c-0.5,0-0.8,0.2-1.1,0.5c-0.3,0.3-0.5,0.8-0.5,1.3s0.1,1,0.5,1.3C28.2,33.6,28.6,33.8,29,33.8z"/>
<path class="st1" d="M36.6,34.5h-0.9v-0.7l0,0c-0.1,0.3-0.4,0.4-0.6,0.6c-0.3,0.2-0.6,0.3-0.9,0.3c-0.6,0-1.1-0.2-1.4-0.5
	c-0.3-0.3-0.5-0.8-0.5-1.5v-3.1h0.9v3c0,0.8,0.4,1.2,1.2,1.2c0.4,0,0.7-0.1,0.9-0.4c0.3-0.3,0.4-0.6,0.4-1.1v-2.7h0.9L36.6,34.5
	L36.6,34.5z"/>
<path class="st1" d="M38.9,27.9c0,0.2-0.1,0.3-0.2,0.4c-0.1,0.1-0.3,0.2-0.5,0.2s-0.3-0.1-0.5-0.2c-0.1-0.1-0.2-0.3-0.2-0.4
	c0-0.2,0.1-0.3,0.2-0.4c0.1-0.1,0.3-0.2,0.5-0.2s0.3,0.1,0.5,0.2S38.9,27.7,38.9,27.9z M38.7,29.6v4.9h-0.9v-4.9H38.7z"/>
<path class="st1" d="M40.9,27.3v7.1H40v-7.1C40,27.3,40.9,27.3,40.9,27.3z"/>
<path class="st1" d="M44,34.5c-0.4,0-0.7-0.1-1-0.4c-0.3-0.3-0.4-0.6-0.4-1v-2.7h-0.9v-0.8h0.9v-1.5h0.9v1.5h1.2v0.8h-1.2v2.4
	c0,0.3,0.1,0.6,0.2,0.7c0.1,0.1,0.3,0.2,0.4,0.2c0.1,0,0.1,0,0.2,0c0.1,0,0.1,0,0.2-0.1l0.3,0.8C44.6,34.5,44.3,34.5,44,34.5z"/>
<path class="st1" d="M48.8,31.7h-3.2V31h3.2V31.7z"/>
<path class="st1" d="M51.1,27.9c0,0.2-0.1,0.3-0.2,0.4c-0.1,0.1-0.3,0.2-0.5,0.2s-0.3-0.1-0.5-0.2c-0.1-0.1-0.2-0.3-0.2-0.4
	c0-0.2,0.1-0.3,0.2-0.4c0.1-0.1,0.3-0.2,0.5-0.2s0.3,0.1,0.5,0.2S51.1,27.7,51.1,27.9z M50.9,29.6v4.9H50v-4.9H50.9z"/>
<path class="st1" d="M52.1,29.6H53v0.7l0,0c0.1-0.3,0.4-0.4,0.6-0.6c0.3-0.2,0.6-0.3,0.9-0.3c0.6,0,1.1,0.2,1.4,0.5
	c0.3,0.3,0.5,0.8,0.5,1.5v3.1h-0.9v-3c0-0.8-0.4-1.2-1.2-1.2c-0.4,0-0.7,0.1-0.9,0.4C53.1,31,53,31.3,53,31.8v2.7h-0.9V29.6
	L52.1,29.6z"/>
<path class="st1" d="M34.2,20.5v0.7l0,0c0.3-0.5,0.9-0.9,1.6-0.9c1.3,0,1.9,0.9,1.9,2.1v3.1h-1v-2.9c0-1.1-0.5-1.4-1.2-1.4
	c-0.8,0-1.3,0.8-1.3,1.6v2.8h-1v-7.4h1V20.5L34.2,20.5z"/>
<path class="st1" d="M38.7,25.5v-5h0.9v0.8l0,0c0.2-0.6,0.9-1,1.5-1c0.3,0,0.5,0,0.7,0.1l-0.4,0.9c-0.1-0.1-0.3-0.1-0.5-0.1
	c-0.6,0-1.3,0.5-1.3,1.5v2.8C39.6,25.5,38.7,25.5,38.7,25.5z"/>
<path class="st1" d="M47.2,23c0,1.5-1.1,2.7-2.6,2.7S42,24.6,42,23s1.1-2.7,2.6-2.7C46.1,20.3,47.2,21.5,47.2,23z M46.2,23
	c0-1.1-0.8-1.8-1.7-1.8c-0.8,0-1.7,0.7-1.7,1.8s0.8,1.8,1.7,1.8S46.2,24.2,46.2,23z"/>
<path class="st1" d="M48,20.5h0.9v0.7l0,0c0.3-0.5,1-0.9,1.6-0.9c0.8,0,1.4,0.4,1.6,1c0.4-0.6,1-1,1.8-1c1.2,0,1.8,0.9,1.8,2.1v3.1
	h-1v-2.9c0-1.1-0.4-1.4-1.1-1.4c-0.8,0-1.3,0.8-1.3,1.6v2.8h-1v-3c0-1.1-0.4-1.4-1.1-1.4c-0.8,0-1.3,0.8-1.3,1.6v2.8h-1L48,20.5
	L48,20.5z"/>
<path class="st1" d="M56.4,23c0-1.4,1-2.7,2.5-2.7s2.5,1.1,2.5,2.7c0,0.1,0,0.2,0,0.2h-4c0.1,1.1,0.8,1.7,1.6,1.7
	c0.6,0,1.1-0.2,1.4-0.9l0.8,0.4c-0.3,0.7-1,1.4-2.2,1.4C57.5,25.7,56.4,24.5,56.4,23z M58.9,21.2c-0.7,0-1.3,0.5-1.4,1.2h2.9
	C60.4,21.9,60,21.2,58.9,21.2z"/>
<path class="st1" d="M29.8,25.7c-1.1,0-1.9-0.4-2.7-1.1C26.4,23.9,26,23,26,21.9s0.4-1.9,1.1-2.7c0.7-0.7,1.6-1.1,2.7-1.1
	s2,0.4,2.7,1.2L31.8,20c-0.5-0.6-1.2-0.9-2-0.9s-1.5,0.3-2,0.8s-0.8,1.2-0.8,2s0.3,1.5,0.8,2s1.2,0.8,2,0.8s1.6-0.3,2.2-1l0.7,0.6
	c-0.3,0.4-0.8,0.7-1.2,1C30.9,25.6,30.4,25.7,29.8,25.7z"/>
<path class="st1" d="M61.9,23c0-1.5,1.1-2.7,2.6-2.7c1.2,0,1.9,0.7,2.2,1.5l-0.9,0.4c-0.3-0.6-0.7-1-1.4-1c-0.8,0-1.6,0.7-1.6,1.8
	s0.8,1.8,1.6,1.8c0.7,0,1.2-0.4,1.5-1l0.8,0.4c-0.3,0.7-1,1.5-2.3,1.5C63,25.7,61.9,24.5,61.9,23z"/>
<path class="st1" d="M67.3,24c0-1.1,1-1.8,2.2-1.8c0.7,0,1.2,0.2,1.4,0.3v-0.1c0-0.8-0.6-1.2-1.3-1.2c-0.5,0-1,0.3-1.2,0.7l-0.9-0.4
	c0.2-0.5,0.8-1.2,2.1-1.2c1.2,0,2.3,0.7,2.3,2.2v3.1H71v-0.7l0,0c-0.3,0.4-0.8,0.9-1.7,0.9C68.2,25.7,67.3,25.1,67.3,24z M70.9,23.4
	c0,0-0.4-0.3-1.2-0.3c-1,0-1.4,0.5-1.4,1s0.6,0.8,1.1,0.8C70.2,24.8,70.9,24.2,70.9,23.4z"/>
<path class="st1" d="M72.4,24.3l0.8-0.4c0.3,0.6,0.8,1,1.4,1s1-0.3,1-0.7c0-0.3-0.2-0.5-0.7-0.7l-1-0.3c-0.5-0.1-1.4-0.5-1.4-1.4
	s1-1.5,2-1.5c0.9,0,1.6,0.4,2,1.2l-0.8,0.3c-0.2-0.5-0.7-0.7-1.2-0.7s-1,0.2-1,0.6c0,0.3,0.3,0.5,0.7,0.6l1,0.2
	c1,0.2,1.4,0.9,1.4,1.5c0,0.9-0.8,1.6-2,1.6C73.5,25.7,72.8,25,72.4,24.3z"/>
<path class="st1" d="M77.9,24v-2.7H77v-0.9h0.9v-1.5h1v1.5h1.2v0.9h-1.2v2.6c0,0.6,0.2,0.8,0.7,0.8c0.2,0,0.3,0,0.4-0.1l0.3,0.8
	c-0.2,0.1-0.5,0.1-0.8,0.1C78.5,25.6,77.9,25,77.9,24z"/>
</svg>
