<svg id="Vrstva_219" data-name="Vrstva 219" xmlns="http://www.w3.org/2000/svg" width="35" height="23"><defs><style>.cls-1{fill:#fff;fill-rule:evenodd}</style></defs><path id="Vrstva_216" data-name="Vrstva 216" class="cls-1" d="M1826 25.25a1.251 1.251 0 00-1.25-1.25h-32.5a1.251 1.251 0 00-1.25 1.25v2.5a1.251 1.251 0 001.25 1.25h32.5a1.251 1.251 0 001.25-1.25v-2.5z" transform="translate(-1791 -24)"/><path id="Vrstva_217" data-name="Vrstva 217" class="cls-1" d="M1826 34.25a1.251 1.251 0 00-1.25-1.25h-32.5a1.251 1.251 0 00-1.25 1.25v2.5a1.251 1.251 0 001.25 1.25h32.5a1.251 1.251 0 001.25-1.25v-2.5z" transform="translate(-1791 -24)"/><path id="Vrstva_218" data-name="Vrstva 218" class="cls-1" d="M1826 43.25a1.251 1.251 0 00-1.25-1.25h-32.5a1.251 1.251 0 00-1.25 1.25v2.5a1.251 1.251 0 001.25 1.25h32.5a1.251 1.251 0 001.25-1.25v-2.5z" transform="translate(-1791 -24)"/></svg>