<svg xmlns="http://www.w3.org/2000/svg" viewBox="0 0 81 51"><path fill="none" d="M0 0h81v51H0z"/><path d="M49.6 37.9c-.7 0-1.4-.6-1.4-1.3s.6-1.3 1.4-1.3c.7 0 1.4.6 1.4 1.3 0 .7-.6 1.3-1.4 1.3z" fill="#00a44c"/><path d="M45.5 42.4c1.5 0 2.7-1.2 2.7-2.7S47 37 45.5 37s-2.7 1.2-2.7 2.7 1.2 2.7 2.7 2.7z" fill="#e93d26"/><path d="M45.5 49.6c1.8 0 3.2-1.4 3.2-3.1 0-1.7-1.4-3.2-3.2-3.2s-3.2 1.4-3.2 3.1c0 1.8 1.5 3.2 3.2 3.2z" fill="#f8aa00"/><path d="M36.4 42.4c3 0 5.5-2.4 5.5-5.4s-2.4-5.4-5.5-5.4S31 34 31 37s2.4 5.4 5.4 5.4z" fill="#007abe"/><path d="M28.3 2.8h2.4V7H35V2.8h2.4v11H35V9.3h-4.2v4.5h-2.4l-.1-11zM46.4 12c-.4.6-.9 1.1-1.5 1.5-.7.4-1.4.6-2.2.6-.6 0-1.1-.1-1.6-.3s-.9-.5-1.3-.8c-.4-.4-.7-.8-.9-1.3s-.3-1.1-.3-1.6c0-1.1.4-2.1 1.2-2.9.4-.4.8-.7 1.3-.9.5-.2 1-.3 1.6-.3.6 0 1.1.1 1.7.3.5.2.9.5 1.2.8.3.4.6.8.7 1.2.2.5.2 1 .2 1.5v.6H41c.1.4.3.8.7 1.1.4.2.8.3 1.2.3s.7-.1 1.1-.3c.3-.2.5-.4.7-.7l1.7 1.2zm-2-3c0-.1-.1-.3-.2-.4-.1-.2-.2-.3-.3-.4-.2-.1-.4-.2-.5-.2-.2-.1-.4-.1-.7-.1-.8 0-1.4.5-1.7 1.2l3.4-.1zm5.1 4.5l-3.2-7.2H49l1.8 4.1h.2l1.7-4.1h2.6l-4.8 10.8H48l1.5-3.6zM21.8 22h5.5c0 .2.1.3.1.5v.5c0 .7-.1 1.4-.4 2.1-.2.6-.5 1.1-1 1.6s-1.1.9-1.8 1.2c-.8.3-1.6.5-2.4.4-.8 0-1.6-.2-2.3-.4-.7-.3-1.3-.7-1.9-1.2-.5-.5-1-1.1-1.3-1.8-.6-1.5-.6-3.1 0-4.6.3-.7.7-1.3 1.3-1.8.5-.5 1.2-.9 1.9-1.2.7-.3 1.5-.4 2.3-.4.9 0 1.7.2 2.5.5.7.3 1.3.8 1.8 1.3l-1.6 1.6c-.3-.3-.7-.6-1.2-.8-.5-.2-1-.3-1.5-.3s-.9.1-1.3.3c-.4.2-.8.4-1.1.7-.3.3-.6.7-.7 1.1-.4.9-.4 1.9 0 2.8.2.4.4.8.7 1.1.3.3.7.5 1.1.7s.9.3 1.4.3c.9 0 1.7-.3 2.3-.8.2-.2.4-.4.5-.6.2-.2.3-.5.4-.8h-3.2l-.1-2zm10.4-1.7c.6 0 1.1.1 1.6.3.5.2.9.5 1.3.8.4.4.7.8.9 1.3.4 1 .4 2.2 0 3.2-.2.5-.5.9-.9 1.3-.4.3-.8.6-1.3.8-1.1.4-2.2.4-3.3 0-.5-.2-.9-.5-1.3-.8-.4-.4-.7-.8-.9-1.3-.4-1-.4-2.2 0-3.2.2-.5.5-.9.9-1.3.4-.3.8-.6 1.3-.8.6-.2 1.1-.3 1.7-.3zm0 5.9c.2 0 .5 0 .7-.1s.4-.2.6-.4c.2-.2.3-.4.4-.6.1-.2.2-.5.1-.8 0-.3 0-.5-.1-.8-.1-.2-.2-.4-.4-.6-.3-.3-.8-.5-1.2-.5-.2 0-.5 0-.7.1-.4.2-.8.5-.9 1-.1.2-.2.5-.1.8 0 .3 0 .5.1.8.1.2.2.4.4.6.2.2.4.3.6.4 0 0 .2.1.5.1zm8.6-5.9c.6 0 1.1.1 1.6.3.5.2.9.5 1.3.8.4.4.7.8.9 1.3.4 1 .4 2.2 0 3.2-.2.5-.5.9-.9 1.3-.4.3-.8.6-1.3.8-1.1.4-2.2.4-3.3 0-.5-.2-.9-.5-1.3-.8-.4-.3-.7-.8-.9-1.3-.4-1-.4-2.2 0-3.2.2-.5.5-.9.9-1.3.4-.3.8-.6 1.3-.8.6-.2 1.2-.3 1.7-.3zm0 5.9c.2 0 .5 0 .7-.1s.4-.2.6-.4c.2-.2.3-.4.4-.6.1-.2.2-.5.1-.8 0-.3 0-.5-.1-.8-.2-.4-.5-.8-.9-1-.2-.1-.4-.1-.7-.1-.7 0-1.4.4-1.6 1.1-.1.2-.2.5-.1.8 0 .3 0 .5.1.8.1.2.2.4.4.6s.4.3.6.4c.1 0 .3.1.5.1zm8.6 5.4c-.5 0-1-.1-1.5-.2-.4-.1-.8-.3-1.1-.5s-.6-.5-.8-.7-.4-.5-.5-.8l2.2-.9c.1.4.4.7.7.9.3.2.6.3 1 .3.5 0 1-.2 1.4-.5s.5-.9.5-1.5v-.4h-.2c-.5.6-1.2 1-2.2 1-.4 0-.9-.1-1.3-.3-.4-.2-.8-.4-1.1-.8-.4-.3-.6-.8-.8-1.2-.4-1-.4-2.2 0-3.3.2-.5.5-.9.8-1.2.3-.3.7-.6 1.1-.8.4-.2.9-.3 1.3-.3 1 0 1.7.3 2.2 1h.2v-.7h2.2v6.9c0 .6-.1 1.1-.3 1.7-.2.5-.5 1-.8 1.3-.4.4-.8.7-1.3.9-.5 0-1.1.1-1.7.1zm.1-5.6c.2 0 .4 0 .6-.1l.6-.3c.2-.2.3-.3.4-.6.2-.5.2-1.1 0-1.6-.1-.2-.2-.4-.4-.6s-.4-.3-.6-.3c-.4-.2-.9-.2-1.3 0l-.6.3c-.2.2-.3.3-.4.6-.2.5-.2 1.1 0 1.6.1.2.2.4.4.6s.4.3.6.3c.3 0 .5.1.7.1zm5.4 2.1v-11h2.3v11h-2.3zm11-1.9c-.4.6-.9 1.1-1.5 1.5-.7.4-1.4.6-2.2.5-.6 0-1.1-.1-1.6-.3-.5-.2-.9-.5-1.3-.8-.4-.3-.7-.8-.9-1.3s-.3-1.1-.3-1.6c0-1.1.4-2.1 1.2-2.8.4-.4.8-.7 1.3-.9.5-.2 1.1-.3 1.6-.3.6 0 1.1.1 1.7.3.5.2.9.5 1.2.8.3.4.6.8.7 1.2.2.5.3 1 .2 1.5v.6h-5.6c.1.4.3.8.7 1.1.4.2.8.3 1.2.3s.7-.1 1.1-.3c.3-.2.5-.4.7-.7l1.8 1.2zm-2.1-2.9c0-.1-.1-.3-.2-.4-.1-.2-.2-.3-.3-.4-.2-.1-.3-.2-.5-.3-.2-.1-.4-.1-.7-.1-.8 0-1.4.5-1.7 1.2h3.4z" fill="#575757"/></svg>