<svg version="1.1" id="Layer_1" xmlns="http://www.w3.org/2000/svg" x="0" y="0" viewBox="0 0 81 51" xml:space="preserve"><style>.st1{fill:#575757}</style><path fill="#ededed" fill-opacity="0" d="M0 0h81v51H0z"/><path class="st1" d="M1.6 30.4H.3v9.2h1.8v-5.1l2.3 3.6h1.3L8 34.4v5.1h1.8v-9.2H8.6l-3.5 5.5-3.5-5.4zm14.5 9.3c1.1 0 2.1-.3 2.9-.9.8-.7 1.2-1.7 1.2-3.1v-5.3h-1.8v5.5c0 .8-.2 1.4-.6 1.7-.4.4-1 .6-1.6.6s-1.2-.2-1.6-.6c-.4-.4-.6-.9-.6-1.7v-5.5h-2v5.3c0 1.4.4 2.4 1.2 3.1.7.6 1.8.9 2.9.9zm6.2-.1h5.9V38h-4v-7.6h-1.8v9.2h-.1zm5.6-9.2V32h2.5v7.6h1.8V32h2.5v-1.6h-6.8zm8.3 9.2H38v-9.2h-1.8v9.2zm6.5-4.1l3.4 4.1h2.3l-3.6-4.2c.4-.1.7-.3 1-.5.5-.5.8-1.1.8-1.9 0-.7-.3-1.4-.8-1.9-.5-.4-1.1-.7-2.1-.7h-3.5v9.2H42v-4.1h.7zm-.7-1.6v-2h1.5c.5 0 .8.1.9.3.2.2.3.4.3.7s-.1.5-.3.7-.4.3-.9.3H42zm7.9 1.1c0-1.7 1.3-3.2 3.1-3.2s3.1 1.4 3.1 3.2-1.3 3.2-3.1 3.2-3.1-1.5-3.1-3.2zm-1.8 0c0 2.6 2 4.7 5 4.7 2.9 0 5-2.1 5-4.7s-2-4.7-5-4.7c-3-.1-5 2-5 4.7zm13.1 0c0-1.7 1.3-3.2 3.1-3.2s3.1 1.4 3.1 3.2-1.3 3.2-3.1 3.2c-1.8-.1-3.1-1.5-3.1-3.2zm-1.9 0c0 2.6 2 4.7 5 4.7 2.9 0 5-2.1 5-4.7s-2-4.7-5-4.7c-2.9-.1-5 2-5 4.7zm12.8-4.6h-1.3v9.2h1.8v-5.1l2.3 3.6h1.3l2.3-3.6v5.1h1.8v-9.2H79l-3.5 5.5-3.4-5.5zM4.8 20.9c0-1-.7-1.5-1.4-1.5H.3v3c0 1 .8 1.5 1.5 1.5h3v-3z"/><path class="st1" d="M11.5 24v-3.9c0-4.2-2.8-7.3-7.6-7.3H.3v5.3h3.1c1.1 0 2.7.9 2.7 2.6V24h5.4zm8.8-3.3c0 .7-.2 1.2-.6 1.5s-.8.4-1.3.4c-.3 0-.5-.1-.8-.2-.2-.2-.3-.4-.3-.8s.2-.7.5-.9c.2-.1.5-.2 1-.3l.5-.1c.2-.1.4-.1.6-.2.2 0 .3-.1.4-.2v.8zM18.2 19c-.8.1-1.5.3-1.9.5-.8.4-1.2 1.2-1.2 2.2 0 .8.2 1.4.7 1.8s1.1.6 1.9.6c.6 0 1.1-.1 1.6-.4.4-.2.7-.5 1-.8v.5c0 .1.1.3.1.5h2.4v-.3c-.1-.1-.2-.1-.3-.2-.1-.1-.1-.3-.1-.6V18c0-1-.3-1.7-1.1-2-.7-.3-1.5-.5-2.4-.5-1.4 0-2.4.3-3 1.1-.4.5-.6 1-.6 1.8h2.1c0-.3.1-.6.3-.7.2-.2.6-.4 1.1-.4.4 0 .8.1 1 .2s.3.4.3.7c0 .3-.1.5-.5.6-.2.1-.5.1-.9.2h-.5zm7.9-3.4v5c0 .5.1.8.2 1.1.2.4.6.6 1.1.6.7 0 1.2-.3 1.5-.9.1-.3.2-.7.2-1.3v-4.5h2.2V24h-2.1v-1.2s-.1.1-.1.2l-.3.3c-.3.3-.7.5-1 .6s-.7.2-1.1.2c-1.2 0-2-.4-2.5-1.3-.2-.5-.3-1.2-.3-2.1v-5h2.2v-.1zm10.4 6.8c-.6 0-1.1-.2-1.4-.7-.3-.5-.4-1.1-.4-1.8s.2-1.3.4-1.8c.3-.5.7-.7 1.4-.7.4 0 .8.1 1.1.4.5.4.7 1.2.7 2.2 0 .7-.2 1.3-.5 1.8-.2.4-.6.6-1.3.6zm-.4-6.9c-1.1 0-2 .4-2.6 1.2-.6.8-1 1.9-1 3.3 0 1.2.3 2.2 1 3 .6.8 1.5 1.2 2.4 1.2.6 0 1.1-.1 1.5-.3.4-.2.7-.6 1-1.1V24h2.1V12.9h-2.2v3.8c-.2-.4-.5-.7-.9-.9-.4-.2-.8-.3-1.3-.3zm8.2-.8h-2.2v-1.8h2.2v1.8zm-2.2.9h2.2V24h-2.2v-8.4zm7.6 6.8c-.6 0-1.1-.2-1.5-.7-.3-.4-.5-1.1-.5-1.9s.2-1.5.5-1.9.8-.7 1.5-.7c.6 0 1.1.2 1.5.7.3.4.5 1.1.5 1.9s-.2 1.5-.5 1.9c-.4.5-.9.7-1.5.7zm4.2-2.6c0-1.2-.3-2.2-1-3.1-.7-.9-1.8-1.3-3.2-1.3s-2.5.4-3.2 1.3-1 1.9-1 3.1.3 2.3 1 3.1c.7.9 1.8 1.3 3.2 1.3s2.5-.4 3.2-1.3c.7-.8 1-1.9 1-3.1zm9.5 0c0 .8-.1 1.4-.5 1.9-.3.5-.8.7-1.4.7-.4 0-.8-.1-1.1-.3-.5-.4-.8-1.1-.8-2 0-.6.1-1.1.2-1.5.3-.7.8-1.1 1.6-1.1.6 0 1.1.2 1.4.7.4.4.6 1 .6 1.6zm-1.2-4.3c-.7 0-1.2.2-1.7.5-.3.2-.5.5-.7.8v-1.2h-2.1v11.1h2.2v-3.8c.2.3.5.6.7.8.4.3 1 .5 1.6.5 1 0 1.9-.4 2.5-1.1.6-.8 1-1.9 1-3.3s-.3-2.4-1-3.2c-.7-.8-1.6-1.1-2.5-1.1zm9.1 0h.2v2.2h-.6c-.9 0-1.5.3-1.8.8-.2.3-.2.8-.2 1.5v4h-2.2v-8.3h2.1v1.5c.3-.5.6-.9.9-1.1.4-.3.9-.5 1.6-.5v-.1zm4.7 6.9c-.6 0-1.1-.2-1.5-.7-.3-.4-.5-1.1-.5-1.9s.2-1.5.5-1.9.8-.7 1.5-.7c.6 0 1.1.2 1.5.7.3.4.5 1.1.5 1.9s-.2 1.5-.5 1.9c-.3.5-.8.7-1.5.7zm4.3-2.6c0-1.2-.3-2.2-1-3.1-.7-.9-1.8-1.3-3.2-1.3-1.4 0-2.5.4-3.2 1.3s-1.1 1.9-1.1 3.1.3 2.3 1 3.1c.7.9 1.8 1.3 3.2 1.3 1.4 0 2.5-.4 3.2-1.3.8-.8 1.1-1.9 1.1-3.1z"/></svg>