<svg xmlns="http://www.w3.org/2000/svg" viewBox="0 0 81 51"><path fill="#ededed" fill-opacity="0" d="M0 0h81v51H0z"/><path d="M24.9 37.6c5.9 0 10-2.7 10-13s-4.1-13-10-13-10 2.7-10 13 4.1 13 10 13zm-1.3-13L18.8 20l1.4-1.4 3.8 3.7v-8.9l7 6.7-4.6 4.5 4.6 4.5-7 6.7v-8.9l-3.8 3.7-1.4-1.4 4.8-4.6zm2.4 6.6l2.2-2.2-2.2-2.2v4.4zM26 18l2.2 2.2-2.2 2.1V18zm16.6 11.3c1 1 2.1 1.4 3.4 1.4 2.3 0 4.1-1.7 4.1-3.9 0-1.2-.5-2.3-1.4-3-.8-.6-1.7-.8-2.6-.8-.3 0-.6 0-.9.1l.2-1.8h4.2v-1.9h-5.9l-.7 5.9 1.3.2c.5-.4 1.1-.6 1.6-.6s1 .1 1.4.4c.4.4.7.9.7 1.5s-.2 1.1-.6 1.4c-.4.3-.8.5-1.3.5-.8 0-1.4-.4-1.9-.9l-1.6 1.5zm9.4.1c0 .8.6 1.4 1.4 1.4s1.4-.6 1.4-1.4-.6-1.4-1.4-1.4-1.4.6-1.4 1.4zM62 25c0 2.1-.5 3.8-1.8 3.8s-1.8-1.7-1.8-3.8.5-3.8 1.8-3.8S62 22.9 62 25zm-5.7 0c0 3.2 1.1 5.8 3.9 5.8 2.9 0 3.9-2.6 3.9-5.8s-1.1-5.8-3.9-5.8c-2.9 0-3.9 2.6-3.9 5.8z" fill="#575757"/></svg>