<svg version="1.1" id="Layer_1" xmlns="http://www.w3.org/2000/svg" x="0" y="0" viewBox="0 0 81 50" xml:space="preserve"><style>.st1{fill:#575757}</style><path fill="#ededed" fill-opacity="0" d="M0 0h81v50H0z"/><path class="st1" d="M64.3 40.5H10.7c-1.9 0-3.4-1.5-3.4-3.3V11.8c0-1.8 1.5-3.3 3.4-3.3h53.6c1.9 0 3.4 1.5 3.4 3.3v25.4c0 1.8-1.5 3.3-3.4 3.3zm11.2-24.4c-.1-.3-.4-.5-.8-.5h-5.4v-3.7c0-2.6-2.3-4.8-5-4.8H10.7c-2.8 0-5 2.2-5 4.8v25.4c0 2.6 2.3 4.8 5 4.8h53.6c2.8 0 5-2.2 5-4.8v-3.7h5.5c.5 0 .8-.4.8-.8V16.5c.1-.2 0-.3-.1-.4z"/><path class="st1" d="M57.4 27.9h-1v4.7h1c.9 0 1.5-.3 1.9-.8.4-.4.6-1 .6-1.5 0-.6-.2-1.2-.6-1.5-.4-.6-1-.9-1.9-.9zm-37.2 2.3c0 1.4 1 2.4 2.5 2.4 1.4 0 2.5-1.1 2.5-2.4 0-1.4-1-2.4-2.5-2.4s-2.5 1.1-2.5 2.4zm-3.5-2.1c-.2-.2-.4-.3-1-.3h-1.2v1.8h1.3c.5 0 .8-.1 1-.3.2-.1.2-.3.2-.5s-.1-.5-.3-.7zm0-9.6c.1-.2.2-.4.2-.5 0-.2-.1-.4-.2-.5-.2-.2-.4-.3-.9-.3h-1.1v1.6h1c.6 0 .8-.1 1-.3zm.5 3.4c.2-.2.3-.5.3-.7 0-.3-.1-.5-.3-.7-.2-.2-.5-.4-1-.4h-1.5v2.1h1.5c.6-.1.8-.1 1-.3zm5.4-1.4h2l-1-2.3-1 2.3zM46 29.2c.1-.1.2-.4.2-.5 0-.2-.1-.5-.2-.5-.1-.1-.3-.2-.8-.2H44v1.5h1.2c.6-.1.7-.2.8-.3zm5.9-10.7c.1-.2.2-.4.2-.5 0-.3-.1-.5-.2-.6-.1-.2-.3-.3-.8-.3h-1.3v1.7h1.3c.5 0 .6-.1.8-.3zm9.7-2.7l-2.8 4.3v3.4h-1.5v-3.4l-2.8-4.2h1.8l1.8 2.7 1.7-2.7 1.8-.1zm-8 2.2c0 .6-.3 1.2-.7 1.5-.2.2-.5.4-.8.5l3 3.5h-1.9l-2.9-3.4h-.6v3.4h-1.5v-7.7h2.9c.9 0 1.3.2 1.7.5.6.5.8 1 .8 1.7zm-7.3 12.5l2.8 3.3h-1.8l-2.7-3.2h-.5v3.2h-1.4v-7.1h2.8c.8 0 1.2.2 1.6.5.4.4.7.9.7 1.5 0 .5-.3 1.1-.7 1.5-.2.1-.5.2-.8.3zm.4-7h-4.9v-7.7h4.8v1.3h-3.2v1.6h2.5V20h-2.5v2.2h3.4l-.1 1.3zm-6.4-6.3h-2.1v6.3h-1.5v-6.3h-2.1v-1.4h5.8l-.1 1.4zm-6.5 13.9l1.5-4.4h1.4l-2.5 7.1h-1l-1.6-4.5-1.6 4.4h-1l-2.5-7.1h1.4l1.5 4.4 1.6-4.4h1l1.8 4.5zm-.6-13.9h-2.1v6.3h-1.5v-6.3h-2.1v-1.4h5.7v1.4zm-9.1-1.4l3.4 7.6h-1.6l-.8-1.7h-3.2l-.8 1.7h-1.6l3.4-7.6h1.2zm-6.2 3.4c.7.4 1.2 1.1 1.2 2 0 .6-.3 1.3-.8 1.6-.5.5-1 .7-2.1.7h-3.1v-7.7h2.8c1 0 1.4.2 1.8.5.5.4.8.9.8 1.5-.1.6-.3 1.2-.6 1.4zm-4.8 7.5h2.8c1 0 1.5.2 1.9.6s.6.9.6 1.5c0 .5-.2 1.1-.6 1.5s-1 .6-1.9.6h-1.3v2.9h-1.4v-7.1h-.1zm5.7 3.5c0-2 1.6-3.6 3.9-3.6s3.9 1.6 3.9 3.6-1.6 3.6-3.9 3.6-3.9-1.6-3.9-3.6zm18.5-3.5h4.5v1.2h-3v1.5H41v1.3h-2.3v2h3.1v1.2h-4.6l.1-7.2zm12.2 0H54v1.2h-3v1.5h2.3v1.3H51v2h3v1.2h-4.6l.1-7.2zm5.4 0h2.4c1.1 0 2 .3 2.6.6 1 .6 1.5 1.7 1.5 2.9s-.6 2.3-1.5 2.9c-.6.5-1.4.6-2.6.6h-2.4v-7zm11.5 10.4V11.9c0-1.1-1-2-2.1-2H10.9c-1.1 0-2.1.9-2.1 2v25.2c0 1.1 1 2 2.1 2h53.4c1.1 0 2.1-.9 2.1-2z"/></svg>