<svg xmlns="http://www.w3.org/2000/svg" viewBox="0 0 81 51"><path fill="#ededed" fill-opacity="0" d="M0 0h81v51H0z"/><path d="M19 18H2.2c-1 0-1.9.8-1.9 1.8v2.8h1.9v-2.8H19v13h-6.5v1.8H19c1 0 1.9-.8 1.9-1.8v-13c0-1-.8-1.8-1.9-1.8zM.3 31.9v2.8h2.8c0-1.5-1.2-2.8-2.8-2.8zm0-3.7V30C2.9 30 5 32.1 5 34.6h1.9c0-3.5-2.9-6.4-6.6-6.4zm0-3.7v1.8c4.7 0 8.4 3.8 8.4 8.4h1.9C10.6 29 6 24.5.3 24.5zm28.9 10.1c-.4 0-.7-.1-1-.2-.3-.1-.5-.4-.7-.6v.7h-.9v-7.1h.9v2.9c.2-.3.4-.4.7-.6.3-.1.6-.2 1-.2.6 0 1.2.3 1.6.8.5.5.7 1.1.7 1.8s-.2 1.3-.7 1.8c-.4.5-1 .7-1.6.7zm-.2-.8c.5 0 .8-.2 1.1-.5.3-.3.5-.8.5-1.3s-.1-.9-.5-1.3c-.3-.3-.7-.5-1.1-.5-.5 0-.8.2-1.1.5-.3.3-.5.8-.5 1.3s.1 1 .5 1.3c.3.3.7.5 1.1.5zm7.6.7h-.9v-.7c-.1.3-.4.4-.6.6-.3.2-.6.3-.9.3-.6 0-1.1-.2-1.4-.5-.3-.3-.5-.8-.5-1.5v-3.1h.9v3c0 .8.4 1.2 1.2 1.2.4 0 .7-.1.9-.4.3-.3.4-.6.4-1.1v-2.7h.9v4.9zm2.3-6.6c0 .2-.1.3-.2.4-.1.1-.3.2-.5.2s-.3-.1-.5-.2c-.1-.1-.2-.3-.2-.4 0-.2.1-.3.2-.4.1-.1.3-.2.5-.2s.3.1.5.2.2.2.2.4zm-.2 1.7v4.9h-.9v-4.9h.9zm2.2-2.3v7.1H40v-7.1h.9zm3.1 7.2c-.4 0-.7-.1-1-.4-.3-.3-.4-.6-.4-1v-2.7h-.9v-.8h.9v-1.5h.9v1.5h1.2v.8h-1.2v2.4c0 .3.1.6.2.7.1.1.3.2.4.2h.2c.1 0 .1 0 .2-.1l.3.8c-.2.1-.5.1-.8.1zm4.8-2.8h-3.2V31h3.2v.7zm2.3-3.8c0 .2-.1.3-.2.4-.1.1-.3.2-.5.2s-.3-.1-.5-.2c-.1-.1-.2-.3-.2-.4 0-.2.1-.3.2-.4.1-.1.3-.2.5-.2s.3.1.5.2.2.2.2.4zm-.2 1.7v4.9H50v-4.9h.9zm1.2 0h.9v.7c.1-.3.4-.4.6-.6.3-.2.6-.3.9-.3.6 0 1.1.2 1.4.5.3.3.5.8.5 1.5v3.1h-.9v-3c0-.8-.4-1.2-1.2-1.2-.4 0-.7.1-.9.4-.3.3-.4.6-.4 1.1v2.7h-.9v-4.9zm-17.9-9.1v.7c.3-.5.9-.9 1.6-.9 1.3 0 1.9.9 1.9 2.1v3.1h-1v-2.9c0-1.1-.5-1.4-1.2-1.4-.8 0-1.3.8-1.3 1.6v2.8h-1v-7.4h1v2.3zm4.5 5v-5h.9v.8c.2-.6.9-1 1.5-1 .3 0 .5 0 .7.1l-.4.9c-.1-.1-.3-.1-.5-.1-.6 0-1.3.5-1.3 1.5v2.8h-.9zm8.5-2.5c0 1.5-1.1 2.7-2.6 2.7S42 24.6 42 23s1.1-2.7 2.6-2.7 2.6 1.2 2.6 2.7zm-1 0c0-1.1-.8-1.8-1.7-1.8-.8 0-1.7.7-1.7 1.8s.8 1.8 1.7 1.8 1.7-.6 1.7-1.8zm1.8-2.5h.9v.7c.3-.5 1-.9 1.6-.9.8 0 1.4.4 1.6 1 .4-.6 1-1 1.8-1 1.2 0 1.8.9 1.8 2.1v3.1h-1v-2.9c0-1.1-.4-1.4-1.1-1.4-.8 0-1.3.8-1.3 1.6v2.8h-1v-3c0-1.1-.4-1.4-1.1-1.4-.8 0-1.3.8-1.3 1.6v2.8h-1l.1-5.1zm8.4 2.5c0-1.4 1-2.7 2.5-2.7s2.5 1.1 2.5 2.7v.2h-4c.1 1.1.8 1.7 1.6 1.7.6 0 1.1-.2 1.4-.9l.8.4c-.3.7-1 1.4-2.2 1.4-1.5-.1-2.6-1.3-2.6-2.8zm2.5-1.8c-.7 0-1.3.5-1.4 1.2h2.9c0-.5-.4-1.2-1.5-1.2zm-29.1 4.5c-1.1 0-1.9-.4-2.7-1.1-.7-.7-1.1-1.6-1.1-2.7s.4-1.9 1.1-2.7c.7-.7 1.6-1.1 2.7-1.1s2 .4 2.7 1.2l-.7.7c-.5-.6-1.2-.9-2-.9s-1.5.3-2 .8-.8 1.2-.8 2 .3 1.5.8 2 1.2.8 2 .8 1.6-.3 2.2-1l.7.6c-.3.4-.8.7-1.2 1-.6.3-1.1.4-1.7.4zM61.9 23c0-1.5 1.1-2.7 2.6-2.7 1.2 0 1.9.7 2.2 1.5l-.9.4c-.3-.6-.7-1-1.4-1-.8 0-1.6.7-1.6 1.8s.8 1.8 1.6 1.8c.7 0 1.2-.4 1.5-1l.8.4c-.3.7-1 1.5-2.3 1.5-1.4 0-2.5-1.2-2.5-2.7zm5.4 1c0-1.1 1-1.8 2.2-1.8.7 0 1.2.2 1.4.3v-.1c0-.8-.6-1.2-1.3-1.2-.5 0-1 .3-1.2.7l-.9-.4c.2-.5.8-1.2 2.1-1.2 1.2 0 2.3.7 2.3 2.2v3.1H71v-.7c-.3.4-.8.9-1.7.9-1.1-.1-2-.7-2-1.8zm3.6-.6s-.4-.3-1.2-.3c-1 0-1.4.5-1.4 1s.6.8 1.1.8c.8-.1 1.5-.7 1.5-1.5zm1.5.9l.8-.4c.3.6.8 1 1.4 1s1-.3 1-.7c0-.3-.2-.5-.7-.7l-1-.3c-.5-.1-1.4-.5-1.4-1.4s1-1.5 2-1.5c.9 0 1.6.4 2 1.2l-.8.3c-.2-.5-.7-.7-1.2-.7s-1 .2-1 .6c0 .3.3.5.7.6l1 .2c1 .2 1.4.9 1.4 1.5 0 .9-.8 1.6-2 1.6-1.1.1-1.8-.6-2.2-1.3zm5.5-.3v-2.7H77v-.9h.9v-1.5h1v1.5h1.2v.9h-1.2v2.6c0 .6.2.8.7.8.2 0 .3 0 .4-.1l.3.8c-.2.1-.5.1-.8.1-1 .1-1.6-.5-1.6-1.5z" fill="#575757"/></svg>