<svg version="1.1" id="Layer_1" xmlns="http://www.w3.org/2000/svg" x="0" y="0" viewBox="0 0 80 51" xml:space="preserve"><style>.st1{fill:#575757}</style><path fill="#ededed" fill-opacity="0" d="M0 0h80v51H0z"/><path class="st1" d="M33.5 22.1h-1.8v2.6h1.8c.7 0 1.1-.1 1.3-.4s.3-.6.3-.9c0-.3-.1-.7-.3-.9-.3-.2-.6-.4-1.3-.4zm18 4.5v-2.5l-2 2.5z"/><path class="st1" d="M79 13.3H1c-.6 0-1 .5-1 1v23c0 .6.4 1 1 1h78c.6 0 1-.4 1-1v-23c0-.6-.4-1-1-1zM27.7 30.8h-2V20.3h2v10.5zm5.9-4.3h-1.9v4.3h-2V20.3h3.9c1.3 0 2.1.3 2.7.9.5.6.8 1.4.8 2.2 0 .8-.3 1.7-.8 2.2-.5.6-1.4.9-2.7.9zm10.6 4.3l-2.6-4-2.5 4h-2.3l3.6-5.6-3.2-4.9h2.3l2.1 3.3 2.1-3.3H46l-3.1 4.9 3.6 5.6h-2.3zm10.9-2.4h-1.7v2.4h-2v-2.4h-4.9v-1.2l5.5-6.9h1.4v6.3h1.7v1.8z"/></svg>