<svg xmlns="http://www.w3.org/2000/svg" viewBox="0 0 81 50"><path fill="#ededed" fill-opacity="0" d="M0 0h81v50H0z"/><path d="M24.9 37.5c5.9 0 10-2.7 10-13s-4.1-13-10-13-10 2.7-10 13 4.1 13 10 13zm-1.3-13l-4.9-4.6 1.4-1.4 3.8 3.7v-8.9l7 6.7-4.6 4.5 4.6 4.5-7 6.7v-8.9l-3.8 3.7-1.4-1.4 4.9-4.6zm2.4 6.6l2.2-2.2-2.2-2.2v4.4zm0-13.2l2.2 2.2-2.2 2.1v-4.3zm22.1 1.4l-5.8 7.4V28h5.2v2.6h2.2V28h1.8v-2h-1.8v-6.7h-1.6zM45.4 26l2.1-2.6V26h-2.1zm7.1 3.3c0 .8.6 1.4 1.4 1.4s1.4-.6 1.4-1.4-.6-1.4-1.4-1.4-1.4.6-1.4 1.4zm10-4.4c0 2.1-.5 3.8-1.8 3.8s-1.8-1.7-1.8-3.8.5-3.8 1.8-3.8 1.8 1.7 1.8 3.8zm-5.7 0c0 3.2 1.1 5.8 3.9 5.8 2.9 0 3.9-2.6 3.9-5.8s-1.1-5.8-3.9-5.8c-2.9 0-3.9 2.6-3.9 5.8z" fill="#575757"/></svg>