<svg xmlns="http://www.w3.org/2000/svg" viewBox="0 0 81 51"><path fill="#ededed" fill-opacity="0" d="M0 0h81v51H0z"/><path d="M51.9 36.9H30.3c-.1 0-.3 0-.4-.1l-.3-.3c-.1-.1-.1-.3-.1-.4 0-.1.1-.3.2-.4l10.7-12.3c.1-.1.2-.2.3-.2s.2-.1.3-.1.2 0 .3.1c.1 0 .2.1.3.2l10.7 12.3c.1.1.2.2.2.4 0 .1 0 .3-.1.4-.1.1-.1.2-.3.3.1 0-.1.1-.2.1zm-2.9-8l-.9-1-.1-.2v-.2l.1-.1c1.8-1.4 3-3.4 3.6-5.6s.5-4.5-.3-6.6-2.2-4-4-5.3c-1.9-1.3-4.1-2-6.3-2-2.3 0-4.5.7-6.3 2-1.9 1.3-3.3 3.2-4 5.3-.8 2.1-.9 4.5-.3 6.6.6 2.2 1.9 4.1 3.6 5.6l.1.1v.2l-.1.2-.9 1-.1.1c-.1 0-.1 0-.1-.1h-.1c-2.1-1.7-3.5-4-4.2-6.6s-.6-5.3.3-7.8 2.6-4.7 4.8-6.2 4.8-2.4 7.5-2.4 5.3.8 7.5 2.4c2.2 1.5 3.9 3.7 4.8 6.2.9 2.5 1 5.3.3 7.8-.7 2.6-2.2 4.9-4.2 6.6l-.1.1h-.2c-.1 0-.3 0-.4-.1zm-3.4-4.1l-.9-1v-.2c1-.8 1.7-1.8 2.1-3 .4-1.2.3-2.5-.1-3.7-.4-1.2-1.2-2.2-2.2-3s-2.2-1.1-3.5-1.1-2.5.4-3.5 1.1-1.8 1.8-2.2 3c-.4 1.2-.4 2.5-.1 3.7.4 1.2 1.1 2.3 2.1 3v.4l-.9 1H36l-.3-.2c-1.2-1.1-2.1-2.5-2.5-4.1s-.3-3.2.3-4.8c.6-1.5 1.6-2.8 2.9-3.8 1.3-.9 2.9-1.4 4.6-1.4s3.2.5 4.6 1.4c1.3.9 2.4 2.2 2.9 3.8.6 1.5.7 3.2.3 4.8s-1.3 3-2.5 4.1l-.3.3h-.4v-.3zm7 7.9h-.2l-1-1.2-.1-.1v-.2h.1c2.5-2.1 4.4-4.9 5.2-8.1.9-3.2.7-6.5-.4-9.6-1.1-3.1-3.1-5.8-5.8-7.7s-5.9-2.9-9.2-2.9-6.5 1-9.2 2.9-4.8 4.6-5.9 7.6c-1.1 3.1-1.3 6.5-.4 9.6.8 3.2 2.7 6 5.2 8.1l.1.1.1.1s0 .1-.1.1l-.1.1-.9 1.2v.1l-.1.1c-.1 0-.1 0-.1-.1l-.1-.1c-2.8-2.4-4.9-5.6-5.8-9.2-1-3.6-.8-7.4.5-10.9S28 6.1 31 4 37.7.7 41.4.8 48.5 2 51.6 4.1c3 2.1 5.3 5.2 6.6 8.7 1.2 3.5 1.4 7.3.4 10.9s-3.1 6.7-6 9zm-28 15l.6-1.4h2.5l.6 1.4h1.3l-2.7-6.3H26l-2.7 6.3h1.3zm1.8-4.3l.8 1.9h-1.6l.8-1.9zm4.6-.1h-1.2v4.4H31v-4.4zm-1.4-1.5c0 .4.3.7.8.7.4 0 .8-.3.8-.7s-.4-.8-.8-.8-.8.4-.8.8zm5.1 1.5h-.4c-.5 0-1 .2-1.3.5v-.4h-1.1v4.4H33V45c.1-.3.5-.6 1.1-.6h.4l.2-1.1zm2.8 1.8c.8 0 1.3-.2 1.6-.6.3-.3.5-.8.5-1.3s-.2-1-.5-1.3c-.4-.4-.8-.6-1.6-.6h-2.4v6.3h1.2V45l1.2.1zm-1.1-1v-1.6h1.1c.4 0 .6.1.8.3.1.1.2.3.2.5s-.1.4-.2.5c-.1.2-.4.3-.8.3h-1.1zm4.8-2.8H40v6.4h1.2v-6.4zm4 4.9c-.2.3-.6.5-1.1.5-.7 0-1.2-.5-1.2-1.2 0-.6.4-1.2 1.1-1.2.4 0 .8.2 1.1.5v1.4h.1zm1.1-2.9h-1.1v.4c-.3-.3-.8-.4-1.3-.4-1.2 0-2.1 1-2.1 2.3 0 .6.2 1.1.6 1.5.4.4 1 .7 1.6.7.4 0 .9-.1 1.2-.4v.4h1.1v-4.5zm2.3 6.6l3-6.5h-1.2L49.2 46l-1.3-2.6h-1.3l2 3.9-1.2 2.6h1.2zm6.3-7.8c.2-.5.5-.9 1-.9.6 0 1 .5 1 1 0 .4-.2.8-.8 1.5l-2.7 3.1v.9h5v-1.3h-2.7l1.6-1.9c.5-.6 1-1.3 1-2.2 0-1.4-1.1-2.4-2.5-2.4-1.1 0-2.1.7-2.4 1.8l1.5.4z" fill="#575757"/></svg>